PERFORMER "Seamus Haji"
TITLE "Essential Mix (2007-01-28)"
FILE "2007.01.28 - EM - Seamus Haji.mp3" MP3
  TRACK 01 AUDIO
    PERFORMER "Essential Mix"
    TITLE "Intro"
    INDEX 01 00:00:00
  TRACK 02 AUDIO
    PERFORMER "Seamus Haji"
    TITLE "Last Night A DJ Saved My Lfe (Haji & Emanuel Remix)"
    INDEX 01 01:26:29
  TRACK 03 AUDIO
    PERFORMER "D Ramirez"
    TITLE "La Discotek"
    INDEX 01 08:18:70
  TRACK 04 AUDIO
    PERFORMER "Blu Ray"
    TITLE "You & Me (Haji & Emanuel Remix)"
    INDEX 01 15:33:70
  TRACK 05 AUDIO
    PERFORMER "S'n'V"
    TITLE "King Coaster (Dave Spoon Remix)"
    INDEX 01 23:02:05
  TRACK 06 AUDIO
    PERFORMER "Brand New Heavies"
    TITLE "I Don't Know Why I Love You (Haji & Emanuel Remix)"
    INDEX 01 28:17:06
  TRACK 07 AUDIO
    PERFORMER "Filthy Rich vs. Hipp-E"
    TITLE "Get Down Wit Me (Seamus Haji Edit)"
    INDEX 01 34:47:07
  TRACK 08 AUDIO
    PERFORMER "Trophy Twins vs. Missy Elliot"
    TITLE "Lick Shot (MK Edit)"
    INDEX 01 39:32:07
  TRACK 09 AUDIO
    PERFORMER "MTV & Lucien Foort"
    TITLE "Bassification"
    INDEX 01 43:19:01
  TRACK 10 AUDIO
    PERFORMER "Dave Spoon vs. London Residents"
    TITLE "Sunrise (Wesley S Remix) vs. Valley Of House (Acappella)"
    INDEX 01 49:19:00
  TRACK 11 AUDIO
    PERFORMER "DJ Pierre"
    TITLE "Destroy This Track (Filthy Rich Remix)"
    INDEX 01 54:49:01
  TRACK 12 AUDIO
    PERFORMER "Sunfreakz"
    TITLE "Riding The Wave (Axwell Remix)"
    INDEX 01 61:21:00
  TRACK 13 AUDIO
    PERFORMER "Peter Presta"
    TITLE "I Want It Liquid (Acid Crash Mix)"
    INDEX 01 67:36:01
  TRACK 14 AUDIO
    PERFORMER "Marcella"
    TITLE "Bouncing Nipples"
    INDEX 01 72:21:00
  TRACK 15 AUDIO
    PERFORMER "Moby"
    TITLE "Porcelain (Murk Remix)"
    INDEX 01 75:21:02
  TRACK 16 AUDIO
    PERFORMER "Hipp-E"
    TITLE "People"
    INDEX 01 81:21:04
  TRACK 17 AUDIO
    PERFORMER "K3 vs. Simon"
    TITLE "Play To Win (Dub) vs. Free At Last (Accapella)"
    INDEX 01 87:36:05
  TRACK 18 AUDIO
    PERFORMER "Justin Martin"
    TITLE "The Fugitive"
    INDEX 01 94:09:61
  TRACK 19 AUDIO
    PERFORMER "Laidback Luke feat. Stephen Granville"
    TITLE "Hypnotize (John Dahlback Mix)"
    INDEX 01 98:32:28
  TRACK 20 AUDIO
    PERFORMER "Shur-I-Kan"
    TITLE "Underground Soul"
    INDEX 01 104:17:27
  TRACK 21 AUDIO
    PERFORMER "Akabu"
    TITLE "I'm Not Afraid Of The Future (DJ Fudge Remix)"
    INDEX 01 108:02:28
  TRACK 22 AUDIO
    PERFORMER "Haji & Emanuel feat. Robert Owens"
    TITLE "If"
    INDEX 01 112:17:29